# xmcd
#
# Track frame offsets:
#	150
#	23735
#	43280
#	67645
#	89453
#	112123
#
# Disc length: 1823 seconds
#
# Revision: 1
# Processed by: cddbd v1.5.1PL0 Copyright (c) Steve Scherf et al.
# Submitted via: CDex 1.50Beta5
#
DISCID=48071d06
DTITLE=佐々木史郎 - Life,The
DYEAR=2001
DGENRE=Jazz
TTITLE0=What’s Going On
TTITLE1=Smokin’
TTITLE2=Morning
TTITLE3=I Will
TTITLE4=Wish
TTITLE5=Moonbeams
EXTD=
EXTT0=
EXTT1=
EXTT2=
EXTT3=
EXTT4=
EXTT5=
PLAYORDER=
